HIERARCHY
ROOT root
{
	OFFSET 0.000000 0.000000 0.000000
	CHANNELS 6 Xposition Yposition Zposition Zrotation Yrotation Xrotation
	JOINT lhip
	{
		OFFSET 0.058581 -0.082280 -0.017664
		CHANNELS 3 Zrotation Yrotation Xrotation
		JOINT lknee
		{
			OFFSET 0.043451 -0.386469 0.008037
			CHANNELS 3 Zrotation Yrotation Xrotation
			JOINT lankle
			{
				OFFSET -0.014790 -0.426874 -0.037428
				CHANNELS 3 Zrotation Yrotation Xrotation
				JOINT ltoe
				{
					OFFSET 0.041054 -0.060286 0.122042
					CHANNELS 3 Zrotation Yrotation Xrotation
					End Site
					{
						OFFSET 0.000000 0.000000 0.000000
					}
				}
			}
		}
	}
	JOINT rhip
	{
		OFFSET -0.060310 -0.090513 -0.013543
		CHANNELS 3 Zrotation Yrotation Xrotation
		JOINT rknee
		{
			OFFSET -0.043257 -0.383688 -0.004843
			CHANNELS 3 Zrotation Yrotation Xrotation
			JOINT rankle
			{
				OFFSET 0.019056 -0.420046 -0.034562
				CHANNELS 3 Zrotation Yrotation Xrotation
				JOINT rtoe
				{
					OFFSET -0.034840 -0.062106 0.130323
					CHANNELS 3 Zrotation Yrotation Xrotation
					End Site
					{
						OFFSET 0.000000 0.000000 0.000000
					}
				}
			}
		}
	}
	JOINT lowerback
	{
		OFFSET 0.004439 0.124404 -0.038385
		CHANNELS 3 Zrotation Yrotation Xrotation
		JOINT upperback
		{
			OFFSET 0.004488 0.137956 0.026820
			CHANNELS 3 Zrotation Yrotation Xrotation
			JOINT chest
			{
				OFFSET -0.002265 0.056032 0.002855
				CHANNELS 3 Zrotation Yrotation Xrotation
				JOINT lowerneck
				{
					OFFSET -0.013390 0.211636 -0.033468
					CHANNELS 3 Zrotation Yrotation Xrotation
					JOINT upperneck
					{
						OFFSET 0.010113 0.088937 0.050410
						CHANNELS 3 Zrotation Yrotation Xrotation
						End Site
						{
							OFFSET 0.000000 0.000000 0.000000
						}
					}
				}
				JOINT lclavicle
				{
					OFFSET 0.071702 0.114000 -0.018898
					CHANNELS 3 Zrotation Yrotation Xrotation
					JOINT lshoulder
					{
						OFFSET 0.122921 0.045205 -0.019046
						CHANNELS 3 Zrotation Yrotation Xrotation
						JOINT lelbow
						{
							OFFSET 0.255332 -0.015649 -0.022946
							CHANNELS 3 Zrotation Yrotation Xrotation
							JOINT lwrist
							{
								OFFSET 0.265709 0.012698 -0.007375
								CHANNELS 3 Zrotation Yrotation Xrotation
								End Site
								{
									OFFSET 0.000000 0.000000 0.000000
								}
							}
						}
					}
				}
				JOINT rclavicle
				{
					OFFSET -0.082954 0.112472 -0.023707
					CHANNELS 3 Zrotation Yrotation Xrotation
					JOINT rshoulder
					{
						OFFSET -0.113228 0.046853 -0.008472
						CHANNELS 3 Zrotation Yrotation Xrotation
						JOINT relbow
						{
							OFFSET -0.260127 -0.014369 -0.031269
							CHANNELS 3 Zrotation Yrotation Xrotation
							JOINT rwrist
							{
								OFFSET -0.269108 0.006794 -0.006027
								CHANNELS 3 Zrotation Yrotation Xrotation
								End Site
								{
									OFFSET 0.000000 0.000000 0.000000
								}
							}
						}
					}
				}
			}
		}
	}
}
MOTION
Frames: 14
Frame Time: 0.033333
0.008053 0.222135 1.001014 97.849868 0.341194 90.152054 6.692398 -1.612812 -7.195513 -3.153977 -7.552158 10.742068 0.539852 5.885849 -5.531953 0.000000 -0.000000 0.000000 -5.171461 -7.303200 -1.544761 1.696780 -2.169696 5.325219 1.175870 -7.803503 -5.517841 0.000000 -0.000000 0.000000 -0.031263 5.563873 5.431213 -0.048656 -1.722734 5.689488 -1.298247 0.015558 -5.140257 1.367566 -11.760650 13.406033 3.393724 -12.879972 17.906767 -29.275063 -2.921124 8.459289 -50.688542 -3.555288 8.362337 8.616553 -38.225548 12.722285 4.337670 -10.562647 -11.379229 24.869450 9.394626 8.544737 42.295128 13.151198 16.517557 13.755649 67.398541 51.875911 -5.431982 13.390494 22.495292 
0.006867 0.223082 1.000930 97.244814 0.295951 90.424074 6.603586 -1.109209 -7.386989 -3.235902 -7.579748 10.603216 0.378647 6.034943 -5.402602 0.000000 -0.000000 0.000000 -5.314373 -7.039150 -2.026114 1.814765 -1.997986 5.315474 1.541846 -7.742948 -5.329106 0.000000 -0.000000 0.000000 0.232581 5.150778 5.744365 -0.295010 -1.948730 4.593995 -1.432336 0.183933 -4.781336 1.116936 -11.883687 13.519559 3.378337 -12.258390 17.862770 -29.330783 -2.923999 8.718908 -50.369497 -3.672715 8.315320 8.510055 -39.028221 13.521027 3.715003 -10.518073 -10.904807 24.929356 9.665855 8.474883 42.482776 13.129618 16.844278 14.165573 67.157920 52.746785 -4.422508 13.735857 24.494217 
0.006411 0.223969 1.000719 96.557251 0.337876 90.559850 6.660768 -1.163442 -7.190217 -3.236713 -7.017495 10.150834 0.485744 6.181712 -5.234477 0.000000 -0.000000 0.000000 -5.307083 -6.858343 -2.302692 1.787615 -1.656964 5.215555 1.635342 -7.608442 -5.081706 0.000000 -0.000000 0.000000 0.401395 5.035842 5.505861 -0.323570 -1.884636 4.516058 -1.454145 0.176488 -4.478229 1.102848 -11.770033 13.479649 3.320355 -12.253195 17.646097 -29.127057 -2.982023 8.651171 -50.740137 -4.144348 8.206420 8.693999 -39.529596 13.752074 2.985244 -10.620141 -10.748961 24.685493 9.662170 8.489091 42.428557 13.498183 16.883152 15.544672 66.887047 55.189461 -3.891014 13.811505 25.875944 
0.005633 0.224141 1.000792 95.346250 0.390892 90.360596 6.828313 -0.829748 -6.412293 -3.368604 -6.473684 9.466652 0.569319 6.434833 -5.077418 0.000000 -0.000000 0.000000 -5.114071 -6.245343 -2.448531 1.481487 -1.291605 5.300804 1.758886 -7.251062 -4.961572 0.000000 -0.000000 0.000000 0.252423 4.670380 6.076179 -0.295746 -1.483457 4.241701 -1.282165 0.407936 -4.695744 0.938980 -11.604811 13.577418 3.206738 -11.977534 17.806717 -28.783680 -2.996421 8.195307 -51.112646 -4.506606 8.481270 7.877536 -39.522268 14.544500 3.400818 -10.731498 -11.119401 24.472649 9.776973 8.429901 42.327491 13.661224 17.425916 17.222715 66.063176 57.727957 -4.031240 14.048312 27.894502 
0.005648 0.224714 1.000688 94.845539 0.412257 90.323165 6.878999 -0.887211 -5.992850 -3.413158 -6.137844 8.944799 0.600475 6.577352 -4.970342 0.000000 -0.000000 0.000000 -5.122761 -6.061870 -2.488313 1.454245 -1.150982 5.271325 1.768081 -7.086756 -4.857919 0.000000 -0.000000 0.000000 0.305582 4.616826 6.057091 -0.316279 -1.573101 4.269360 -1.253635 0.349798 -4.763771 0.766868 -11.380695 13.804238 3.123603 -11.681834 17.942467 -28.809797 -3.389871 8.377185 -51.271859 -4.534275 8.444631 8.285135 -39.477480 14.011539 3.347511 -10.877528 -10.955471 24.439041 9.989014 8.673763 42.126627 13.778343 17.454125 18.395593 65.583287 59.831863 -3.980319 14.223631 28.960932 
0.005622 0.225361 1.000529 94.265872 0.431656 90.289054 6.936986 -0.869263 -5.531096 -3.477125 -5.710239 8.375056 0.721859 6.699523 -4.928479 0.000000 -0.000000 0.000000 -5.152517 -6.006930 -2.600336 1.444881 -0.890838 5.312474 1.844864 -6.880427 -4.763570 0.000000 -0.000000 0.000000 0.297445 4.588693 5.898379 -0.290305 -1.625397 4.314652 -1.216632 0.258764 -4.734222 0.535666 -11.184934 14.126786 2.971474 -11.315869 18.215738 -28.760434 -3.679393 8.412357 -51.530503 -4.709214 8.538270 8.511535 -39.368341 13.706128 3.578377 -10.947516 -11.041881 24.475541 10.009691 8.842814 42.055174 13.730474 17.692277 19.073950 65.151690 60.829692 -4.138271 14.333000 30.465554 
0.005763 0.225960 1.000304 93.679696 0.505876 90.218430 7.019976 -0.871275 -5.034876 -3.499926 -5.446493 7.815893 0.818312 6.872509 -4.823313 0.000000 -0.000000 0.000000 -5.124222 -5.897392 -2.664903 1.438644 -0.611505 5.358988 1.910485 -6.699554 -4.702352 0.000000 -0.000000 0.000000 0.363286 4.493494 5.773098 -0.280179 -1.666848 4.406424 -1.226298 0.267941 -4.707630 0.329904 -11.009874 14.507420 2.808508 -11.160936 18.153404 -28.770297 -3.796205 8.354660 -51.569973 -4.887765 8.618676 8.384649 -39.435578 13.714486 3.556698 -10.955285 -11.230014 24.471737 9.956202 8.887446 41.913926 13.813747 17.887450 20.223144 64.727704 62.475057 -4.090216 14.483398 31.460162 
0.005597 0.226649 1.000008 93.295655 0.534679 90.218513 7.016273 -0.308261 -4.864855 -3.563677 -5.523126 7.594293 0.699806 6.790301 -4.770432 0.000000 -0.000000 0.000000 -5.146830 -5.831489 -2.840431 1.443004 -0.527638 5.513384 1.888899 -6.449559 -4.734770 0.000000 -0.000000 0.000000 0.459282 4.157985 5.745085 -0.352537 -1.723715 4.505204 -1.209007 0.327728 -4.742602 -0.086728 -11.042986 14.668250 2.903884 -10.840978 17.154267 -28.865170 -3.891114 8.238704 -51.623442 -4.995220 8.639595 8.283156 -39.482511 13.702209 3.948819 -10.769621 -11.329576 24.122640 10.034738 8.713405 42.308351 13.623079 18.129095 20.470092 64.546704 62.923874 -4.112948 14.442541 32.031965 
0.005538 0.227032 1.000112 92.892487 0.512385 90.127559 6.960066 -0.113312 -4.616365 -3.583989 -5.423382 7.472147 0.612394 6.829289 -4.844191 0.000000 -0.000000 0.000000 -5.227254 -5.729475 -2.909685 1.435155 -0.422676 5.710360 1.948271 -6.220606 -4.727791 0.000000 -0.000000 0.000000 0.513466 4.044704 5.835662 -0.403409 -1.831054 4.797334 -1.212949 0.175668 -4.558522 -0.426578 -11.387844 14.169659 3.133458 -10.856037 14.417278 -29.133462 -3.833441 7.685557 -51.398073 -4.949494 8.913618 8.219565 -39.763222 13.320207 4.086456 -10.313586 -11.167190 24.024120 10.022696 7.826403 42.616341 13.429568 18.714276 20.390373 64.288397 62.279775 -3.949255 14.133216 32.113891 
0.005272 0.227137 1.000573 92.461072 0.521662 90.082017 6.907220 0.163305 -4.460907 -3.554938 -5.319336 7.368286 0.329986 6.807302 -4.924301 0.000000 -0.000000 0.000000 -5.213838 -5.530170 -3.064405 1.305118 -0.342568 5.851176 2.214478 -5.891278 -4.550339 0.000000 -0.000000 0.000000 0.599003 3.769549 6.137316 -0.443987 -2.101912 5.328271 -1.125523 -0.015244 -4.177931 -1.059993 -12.001017 12.033067 3.777799 -11.362861 9.095615 -29.524182 -3.940000 6.898444 -50.816015 -4.662858 9.295977 7.810216 -40.245778 12.296010 4.734205 -9.723173 -11.082421 23.859543 10.267007 6.611703 43.485713 13.261957 19.151657 18.412172 63.655396 58.135129 -3.455377 12.886845 30.482146 
0.005019 0.227386 1.001000 92.102746 0.512913 90.240501 6.830996 0.386374 -4.564097 -3.522590 -5.265309 7.294024 0.137362 6.823165 -4.923767 0.000000 -0.000000 0.000000 -5.151476 -5.383369 -3.412142 1.157412 -0.287316 5.948732 2.319652 -5.727568 -4.451631 0.000000 -0.000000 0.000000 0.694049 3.508532 6.515117 -0.568561 -2.235088 5.295504 -1.072400 -0.123156 -4.200512 -1.575558 -12.329704 9.753930 4.178357 -11.332203 5.775903 -29.594505 -4.204333 6.724725 -50.773724 -4.218084 9.523502 7.840799 -40.057911 11.638014 4.711712 -9.225820 -11.314432 23.672408 10.696732 6.150182 44.843925 12.831496 19.240412 14.565943 62.338374 51.964473 -2.149438 11.396864 27.428452 
0.006183 0.227323 1.001539 91.997887 0.610216 90.382441 6.918141 0.608640 -4.424745 -3.471619 -5.267652 6.881956 -0.049809 6.722562 -4.888077 0.000000 -0.000000 0.000000 -5.046115 -5.554141 -3.256904 1.142505 -0.313975 5.452761 2.434733 -5.554358 -4.270476 0.000000 -0.000000 0.000000 0.691178 3.271043 6.436918 -0.570088 -2.560953 5.417349 -0.930741 -0.213041 -4.496473 -2.194203 -12.876697 8.369683 4.412700 -11.792626 3.832695 -29.623662 -4.588267 7.037110 -50.792615 -3.695572 9.693152 8.058730 -39.627309 10.873353 4.764448 -9.264087 -10.929959 23.774270 11.260938 6.237415 46.202400 12.121497 19.116913 10.130811 60.190173 44.954497 -0.846990 9.900062 24.653389 
0.006344 0.227481 1.001442 91.158951 0.596999 90.521291 6.872101 1.069316 -4.092351 -3.464512 -5.084509 6.240989 -0.183973 6.886002 -4.810543 0.000000 -0.000000 0.000000 -4.997332 -5.087350 -3.547672 1.055322 -0.257490 5.372597 2.382065 -5.227983 -4.212838 0.000000 -0.000000 0.000000 0.619750 2.987818 6.713567 -0.741302 -2.182347 5.168891 -0.980181 -0.065147 -5.072884 -2.526975 -13.594472 7.504986 4.507920 -12.677269 3.458391 -29.704296 -4.764988 6.972014 -50.982701 -3.479434 9.911399 8.404762 -38.202478 10.581663 3.755342 -8.908164 -9.847615 23.991594 11.576432 6.346879 47.722331 11.773435 18.776523 6.581272 56.796832 39.280184 1.715780 8.034970 21.266133 
0.007491 0.227498 1.000713 90.648066 0.595704 90.438125 7.002803 1.376593 -3.506151 -3.625754 -4.893197 5.627961 -0.224197 6.841607 -4.713213 0.000000 -0.000000 0.000000 -5.033532 -4.846066 -3.386056 1.063731 -0.181469 5.212365 2.426032 -4.937945 -4.162877 0.000000 -0.000000 0.000000 0.462612 2.820646 6.725757 -0.877397 -2.022103 5.038372 -1.117532 -0.058392 -5.450571 -2.596552 -14.323178 7.452215 4.612304 -13.747770 4.225565 -29.755736 -4.855266 7.254940 -51.110330 -3.540544 9.914295 9.282429 -37.165738 9.984941 2.452486 -8.746456 -8.887827 24.270372 11.797711 6.635249 49.445575 11.634247 18.295058 3.125328 52.581114 34.156958 3.956976 6.637264 19.212412 
